<svg width="24" height="24" viewBox="0 0 24 24" fill="none" xmlns="http://www.w3.org/2000/svg">
<g clip-path="url(#clip0_581_16951)">
<path d="M20.083 15.2L21.285 15.921C21.3591 15.9654 21.4205 16.0283 21.4631 16.1034C21.5058 16.1786 21.5282 16.2636 21.5282 16.35C21.5282 16.4364 21.5058 16.5214 21.4631 16.5966C21.4205 16.6718 21.3591 16.7346 21.285 16.779L12.515 22.041C12.3594 22.1345 12.1814 22.1838 12 22.1838C11.8185 22.1838 11.6405 22.1345 11.485 22.041L2.71498 16.779C2.64082 16.7346 2.57944 16.6718 2.53682 16.5966C2.4942 16.5214 2.4718 16.4364 2.4718 16.35C2.4718 16.2636 2.4942 16.1786 2.53682 16.1034C2.57944 16.0283 2.64082 15.9654 2.71498 15.921L3.91698 15.2L12 20.05L20.083 15.2V15.2ZM20.083 10.5L21.285 11.221C21.3591 11.2654 21.4205 11.3283 21.4631 11.4034C21.5058 11.4786 21.5282 11.5636 21.5282 11.65C21.5282 11.7364 21.5058 11.8214 21.4631 11.8966C21.4205 11.9718 21.3591 12.0346 21.285 12.079L12 17.65L2.71498 12.079C2.64082 12.0346 2.57944 11.9718 2.53682 11.8966C2.4942 11.8214 2.4718 11.7364 2.4718 11.65C2.4718 11.5636 2.4942 11.4786 2.53682 11.4034C2.57944 11.3283 2.64082 11.2654 2.71498 11.221L3.91698 10.5L12 15.35L20.083 10.5ZM12.514 1.30901L21.285 6.57101C21.3591 6.6154 21.4205 6.67826 21.4631 6.75344C21.5058 6.82863 21.5282 6.91358 21.5282 7.00001C21.5282 7.08643 21.5058 7.17139 21.4631 7.24657C21.4205 7.32176 21.3591 7.38462 21.285 7.42901L12 13L2.71498 7.42901C2.64082 7.38462 2.57944 7.32176 2.53682 7.24657C2.4942 7.17139 2.4718 7.08643 2.4718 7.00001C2.4718 6.91358 2.4942 6.82863 2.53682 6.75344C2.57944 6.67826 2.64082 6.6154 2.71498 6.57101L11.485 1.30901C11.6405 1.21557 11.8185 1.1662 12 1.1662C12.1814 1.1662 12.3594 1.21557 12.515 1.30901H12.514ZM12 3.33201L5.88698 7.00001L12 10.668L18.113 7.00001L12 3.33201Z" fill="white"/>
</g>
<defs>
<clipPath id="clip0_581_16951">
<rect width="24" height="24" fill="white"/>
</clipPath>
</defs>
</svg>
