<svg width="597" height="140" viewBox="0 0 597 140" fill="none" xmlns="http://www.w3.org/2000/svg">
<path d="M110.932 99C110.372 99 109.896 98.804 109.504 98.412C109.112 98.02 108.916 97.544 108.916 96.984V42.3C108.916 41.684 109.112 41.18 109.504 40.788C109.896 40.396 110.372 40.2 110.932 40.2H147.388C148.004 40.2 148.508 40.396 148.9 40.788C149.292 41.18 149.488 41.684 149.488 42.3V48.18C149.488 48.796 149.292 49.3 148.9 49.692C148.508 50.028 148.004 50.196 147.388 50.196H120.424V66.156H145.708C146.324 66.156 146.828 66.352 147.22 66.744C147.612 67.136 147.808 67.64 147.808 68.256V74.136C147.808 74.696 147.612 75.172 147.22 75.564C146.828 75.956 146.324 76.152 145.708 76.152H120.424V96.984C120.424 97.544 120.228 98.02 119.836 98.412C119.444 98.804 118.94 99 118.324 99H110.932ZM158.591 99C158.031 99 157.555 98.804 157.163 98.412C156.771 98.02 156.575 97.544 156.575 96.984V57.336C156.575 56.776 156.771 56.3 157.163 55.908C157.555 55.516 158.031 55.32 158.591 55.32H165.563C166.179 55.32 166.655 55.516 166.991 55.908C167.383 56.3 167.579 56.776 167.579 57.336V96.984C167.579 97.544 167.383 98.02 166.991 98.412C166.655 98.804 166.179 99 165.563 99H158.591ZM158.255 48.096C157.639 48.096 157.135 47.928 156.743 47.592C156.407 47.2 156.239 46.696 156.239 46.08V40.032C156.239 39.472 156.407 38.996 156.743 38.604C157.135 38.212 157.639 38.016 158.255 38.016H165.899C166.515 38.016 167.019 38.212 167.411 38.604C167.803 38.996 167.999 39.472 167.999 40.032V46.08C167.999 46.696 167.803 47.2 167.411 47.592C167.019 47.928 166.515 48.096 165.899 48.096H158.255ZM178.304 99C177.744 99 177.268 98.804 176.876 98.412C176.484 98.02 176.288 97.544 176.288 96.984V41.376C176.288 40.816 176.484 40.34 176.876 39.948C177.268 39.556 177.744 39.36 178.304 39.36H185.276C185.836 39.36 186.312 39.556 186.704 39.948C187.096 40.34 187.292 40.816 187.292 41.376V96.984C187.292 97.544 187.096 98.02 186.704 98.412C186.312 98.804 185.836 99 185.276 99H178.304ZM214.73 99.84C208.514 99.84 203.586 98.048 199.946 94.464C196.306 90.88 194.346 85.784 194.066 79.176C194.01 78.616 193.982 77.916 193.982 77.076C193.982 76.18 194.01 75.48 194.066 74.976C194.29 70.776 195.242 67.136 196.922 64.056C198.658 60.976 201.038 58.624 204.062 57C207.086 55.32 210.642 54.48 214.73 54.48C219.266 54.48 223.074 55.432 226.154 57.336C229.234 59.184 231.558 61.788 233.126 65.148C234.694 68.452 235.478 72.288 235.478 76.656V78.42C235.478 78.98 235.282 79.456 234.89 79.848C234.498 80.24 233.994 80.436 233.378 80.436H205.49C205.49 80.436 205.49 80.52 205.49 80.688C205.49 80.856 205.49 80.996 205.49 81.108C205.546 83.068 205.91 84.888 206.582 86.568C207.31 88.192 208.346 89.508 209.69 90.516C211.09 91.524 212.742 92.028 214.646 92.028C216.214 92.028 217.53 91.804 218.594 91.356C219.658 90.852 220.526 90.292 221.198 89.676C221.87 89.06 222.346 88.556 222.626 88.164C223.13 87.492 223.522 87.1 223.802 86.988C224.138 86.82 224.614 86.736 225.23 86.736H232.454C233.014 86.736 233.462 86.904 233.798 87.24C234.19 87.576 234.358 87.996 234.302 88.5C234.246 89.396 233.77 90.488 232.874 91.776C232.034 93.064 230.802 94.324 229.178 95.556C227.554 96.788 225.51 97.824 223.046 98.664C220.638 99.448 217.866 99.84 214.73 99.84ZM205.49 73.38H224.054V73.128C224.054 70.944 223.69 69.04 222.962 67.416C222.234 65.792 221.17 64.504 219.77 63.552C218.37 62.6 216.69 62.124 214.73 62.124C212.77 62.124 211.09 62.6 209.69 63.552C208.29 64.504 207.226 65.792 206.498 67.416C205.826 69.04 205.49 70.944 205.49 73.128V73.38ZM261.658 99C261.042 99 260.538 98.804 260.146 98.412C259.754 98.02 259.558 97.544 259.558 96.984V42.3C259.558 41.684 259.754 41.18 260.146 40.788C260.538 40.396 261.042 40.2 261.658 40.2H268.294C269.078 40.2 269.666 40.424 270.058 40.872C270.45 41.264 270.702 41.572 270.814 41.796L287.026 72.036L303.406 41.796C303.518 41.572 303.77 41.264 304.162 40.872C304.554 40.424 305.142 40.2 305.926 40.2H312.478C313.094 40.2 313.598 40.396 313.99 40.788C314.382 41.18 314.578 41.684 314.578 42.3V96.984C314.578 97.544 314.382 98.02 313.99 98.412C313.598 98.804 313.094 99 312.478 99H305.422C304.806 99 304.302 98.804 303.91 98.412C303.574 98.02 303.406 97.544 303.406 96.984V60.612L291.646 83.04C291.366 83.544 291.002 83.992 290.554 84.384C290.106 84.72 289.518 84.888 288.79 84.888H285.346C284.562 84.888 283.946 84.72 283.498 84.384C283.106 83.992 282.77 83.544 282.49 83.04L270.73 60.612V96.984C270.73 97.544 270.534 98.02 270.142 98.412C269.75 98.804 269.274 99 268.714 99H261.658ZM336.8 99.84C333.888 99.84 331.256 99.28 328.904 98.16C326.552 96.984 324.676 95.444 323.276 93.54C321.932 91.58 321.26 89.396 321.26 86.988C321.26 83.068 322.828 79.96 325.964 77.664C329.156 75.312 333.356 73.744 338.564 72.96L350.072 71.28V69.516C350.072 67.164 349.484 65.344 348.308 64.056C347.132 62.768 345.116 62.124 342.26 62.124C340.244 62.124 338.592 62.544 337.304 63.384C336.072 64.168 335.148 65.232 334.532 66.576C334.084 67.304 333.44 67.668 332.6 67.668H325.964C325.348 67.668 324.872 67.5 324.536 67.164C324.256 66.828 324.116 66.38 324.116 65.82C324.172 64.924 324.536 63.832 325.208 62.544C325.88 61.256 326.944 60.024 328.4 58.848C329.856 57.616 331.732 56.58 334.028 55.74C336.324 54.9 339.096 54.48 342.344 54.48C345.872 54.48 348.84 54.928 351.248 55.824C353.712 56.664 355.672 57.812 357.128 59.268C358.584 60.724 359.648 62.432 360.32 64.392C360.992 66.352 361.328 68.424 361.328 70.608V96.984C361.328 97.544 361.132 98.02 360.74 98.412C360.348 98.804 359.872 99 359.312 99H352.508C351.892 99 351.388 98.804 350.996 98.412C350.66 98.02 350.492 97.544 350.492 96.984V93.708C349.764 94.772 348.784 95.78 347.552 96.732C346.32 97.628 344.808 98.384 343.016 99C341.28 99.56 339.208 99.84 336.8 99.84ZM339.656 91.86C341.616 91.86 343.38 91.44 344.948 90.6C346.572 89.76 347.832 88.472 348.728 86.736C349.68 84.944 350.156 82.704 350.156 80.016V78.252L341.756 79.596C338.452 80.1 335.988 80.912 334.364 82.032C332.74 83.152 331.928 84.524 331.928 86.148C331.928 87.38 332.292 88.444 333.02 89.34C333.804 90.18 334.784 90.824 335.96 91.272C337.136 91.664 338.368 91.86 339.656 91.86ZM371.6 99C371.04 99 370.564 98.804 370.172 98.412C369.78 98.02 369.584 97.544 369.584 96.984V57.336C369.584 56.776 369.78 56.3 370.172 55.908C370.564 55.516 371.04 55.32 371.6 55.32H378.488C379.048 55.32 379.524 55.516 379.916 55.908C380.308 56.3 380.504 56.776 380.504 57.336V60.78C381.96 58.988 383.808 57.504 386.048 56.328C388.344 55.096 391.172 54.48 394.532 54.48C397.948 54.48 400.916 55.264 403.436 56.832C405.956 58.344 407.888 60.5 409.232 63.3C410.632 66.1 411.332 69.46 411.332 73.38V96.984C411.332 97.544 411.136 98.02 410.744 98.412C410.352 98.804 409.876 99 409.316 99H401.924C401.364 99 400.888 98.804 400.496 98.412C400.104 98.02 399.908 97.544 399.908 96.984V73.884C399.908 70.636 399.096 68.088 397.472 66.24C395.904 64.392 393.608 63.468 390.584 63.468C387.672 63.468 385.348 64.392 383.612 66.24C381.876 68.088 381.008 70.636 381.008 73.884V96.984C381.008 97.544 380.812 98.02 380.42 98.412C380.028 98.804 379.552 99 378.992 99H371.6ZM432.166 99.84C429.254 99.84 426.622 99.28 424.27 98.16C421.918 96.984 420.042 95.444 418.642 93.54C417.298 91.58 416.626 89.396 416.626 86.988C416.626 83.068 418.194 79.96 421.33 77.664C424.522 75.312 428.722 73.744 433.93 72.96L445.438 71.28V69.516C445.438 67.164 444.85 65.344 443.674 64.056C442.498 62.768 440.482 62.124 437.626 62.124C435.61 62.124 433.958 62.544 432.67 63.384C431.438 64.168 430.514 65.232 429.898 66.576C429.45 67.304 428.806 67.668 427.966 67.668H421.33C420.714 67.668 420.238 67.5 419.902 67.164C419.622 66.828 419.482 66.38 419.482 65.82C419.538 64.924 419.902 63.832 420.574 62.544C421.246 61.256 422.31 60.024 423.766 58.848C425.222 57.616 427.098 56.58 429.394 55.74C431.69 54.9 434.462 54.48 437.71 54.48C441.238 54.48 444.206 54.928 446.614 55.824C449.078 56.664 451.038 57.812 452.494 59.268C453.95 60.724 455.014 62.432 455.686 64.392C456.358 66.352 456.694 68.424 456.694 70.608V96.984C456.694 97.544 456.498 98.02 456.106 98.412C455.714 98.804 455.238 99 454.678 99H447.874C447.258 99 446.754 98.804 446.362 98.412C446.026 98.02 445.858 97.544 445.858 96.984V93.708C445.13 94.772 444.15 95.78 442.918 96.732C441.686 97.628 440.174 98.384 438.382 99C436.646 99.56 434.574 99.84 432.166 99.84ZM435.022 91.86C436.982 91.86 438.746 91.44 440.314 90.6C441.938 89.76 443.198 88.472 444.094 86.736C445.046 84.944 445.522 82.704 445.522 80.016V78.252L437.122 79.596C433.818 80.1 431.354 80.912 429.73 82.032C428.106 83.152 427.294 84.524 427.294 86.148C427.294 87.38 427.658 88.444 428.386 89.34C429.17 90.18 430.15 90.824 431.326 91.272C432.502 91.664 433.734 91.86 435.022 91.86ZM484.691 117.48C480.603 117.48 477.243 116.948 474.611 115.884C471.979 114.82 469.907 113.532 468.395 112.02C466.883 110.508 465.791 108.996 465.119 107.484C464.503 106.028 464.167 104.88 464.111 104.04C464.055 103.48 464.223 102.976 464.615 102.528C465.063 102.136 465.567 101.94 466.127 101.94H473.435C473.995 101.94 474.443 102.052 474.779 102.276C475.115 102.556 475.395 103.032 475.619 103.704C475.955 104.432 476.403 105.216 476.963 106.056C477.523 106.896 478.363 107.596 479.483 108.156C480.659 108.772 482.255 109.08 484.271 109.08C486.399 109.08 488.191 108.772 489.647 108.156C491.103 107.54 492.195 106.504 492.923 105.048C493.707 103.592 494.099 101.576 494.099 99V93.288C492.755 94.912 491.019 96.228 488.891 97.236C486.819 98.244 484.243 98.748 481.163 98.748C478.139 98.748 475.535 98.272 473.351 97.32C471.167 96.312 469.347 94.94 467.891 93.204C466.435 91.412 465.315 89.312 464.531 86.904C463.803 84.496 463.383 81.836 463.271 78.924C463.215 77.412 463.215 75.9 463.271 74.388C463.383 71.588 463.803 68.984 464.531 66.576C465.259 64.168 466.351 62.068 467.807 60.276C469.319 58.428 471.167 57 473.351 55.992C475.535 54.984 478.139 54.48 481.163 54.48C484.355 54.48 487.043 55.096 489.227 56.328C491.411 57.504 493.203 58.988 494.603 60.78V57.42C494.603 56.804 494.799 56.3 495.191 55.908C495.583 55.516 496.059 55.32 496.619 55.32H503.423C503.983 55.32 504.459 55.516 504.851 55.908C505.243 56.3 505.439 56.804 505.439 57.42L505.523 97.908C505.523 101.94 504.767 105.412 503.255 108.324C501.743 111.236 499.447 113.476 496.367 115.044C493.343 116.668 489.451 117.48 484.691 117.48ZM484.271 89.844C486.567 89.844 488.415 89.34 489.815 88.332C491.215 87.324 492.251 86.008 492.923 84.384C493.595 82.76 493.987 81.108 494.099 79.428C494.155 78.7 494.183 77.776 494.183 76.656C494.183 75.536 494.155 74.64 494.099 73.968C493.987 72.232 493.595 70.58 492.923 69.012C492.251 67.388 491.215 66.072 489.815 65.064C488.415 64 486.567 63.468 484.271 63.468C481.975 63.468 480.127 64 478.727 65.064C477.327 66.072 476.319 67.416 475.703 69.096C475.143 70.776 474.807 72.624 474.695 74.64C474.583 75.984 474.583 77.356 474.695 78.756C474.807 80.716 475.143 82.564 475.703 84.3C476.319 85.98 477.327 87.324 478.727 88.332C480.127 89.34 481.975 89.844 484.271 89.844ZM533.008 99.84C526.792 99.84 521.864 98.048 518.224 94.464C514.584 90.88 512.624 85.784 512.344 79.176C512.288 78.616 512.26 77.916 512.26 77.076C512.26 76.18 512.288 75.48 512.344 74.976C512.568 70.776 513.52 67.136 515.2 64.056C516.936 60.976 519.316 58.624 522.34 57C525.364 55.32 528.92 54.48 533.008 54.48C537.544 54.48 541.352 55.432 544.432 57.336C547.512 59.184 549.836 61.788 551.404 65.148C552.972 68.452 553.756 72.288 553.756 76.656V78.42C553.756 78.98 553.56 79.456 553.168 79.848C552.776 80.24 552.272 80.436 551.656 80.436H523.768C523.768 80.436 523.768 80.52 523.768 80.688C523.768 80.856 523.768 80.996 523.768 81.108C523.824 83.068 524.188 84.888 524.86 86.568C525.588 88.192 526.624 89.508 527.968 90.516C529.368 91.524 531.02 92.028 532.924 92.028C534.492 92.028 535.808 91.804 536.872 91.356C537.936 90.852 538.804 90.292 539.476 89.676C540.148 89.06 540.624 88.556 540.904 88.164C541.408 87.492 541.8 87.1 542.08 86.988C542.416 86.82 542.892 86.736 543.508 86.736H550.732C551.292 86.736 551.74 86.904 552.076 87.24C552.468 87.576 552.636 87.996 552.58 88.5C552.524 89.396 552.048 90.488 551.152 91.776C550.312 93.064 549.08 94.324 547.456 95.556C545.832 96.788 543.788 97.824 541.324 98.664C538.916 99.448 536.144 99.84 533.008 99.84ZM523.768 73.38H542.332V73.128C542.332 70.944 541.968 69.04 541.24 67.416C540.512 65.792 539.448 64.504 538.048 63.552C536.648 62.6 534.968 62.124 533.008 62.124C531.048 62.124 529.368 62.6 527.968 63.552C526.568 64.504 525.504 65.792 524.776 67.416C524.104 69.04 523.768 70.944 523.768 73.128V73.38ZM562.169 99C561.609 99 561.133 98.804 560.741 98.412C560.349 98.02 560.153 97.544 560.153 96.984V57.42C560.153 56.804 560.349 56.3 560.741 55.908C561.133 55.516 561.609 55.32 562.169 55.32H568.973C569.533 55.32 570.009 55.516 570.401 55.908C570.849 56.3 571.073 56.804 571.073 57.42V60.864C572.361 59.072 574.013 57.7 576.029 56.748C578.101 55.796 580.481 55.32 583.169 55.32H586.613C587.229 55.32 587.705 55.516 588.041 55.908C588.433 56.3 588.629 56.776 588.629 57.336V63.384C588.629 63.944 588.433 64.42 588.041 64.812C587.705 65.204 587.229 65.4 586.613 65.4H580.061C577.373 65.4 575.273 66.156 573.761 67.668C572.305 69.18 571.577 71.252 571.577 73.884V96.984C571.577 97.544 571.381 98.02 570.989 98.412C570.597 98.804 570.093 99 569.477 99H562.169Z" fill="black"/>
<g clip-path="url(#clip0_395_8865)">
<path d="M74.9432 86.6667L78.9498 89.07C79.197 89.218 79.4016 89.4275 79.5437 89.6781C79.6857 89.9288 79.7604 90.2119 79.7604 90.5C79.7604 90.7881 79.6857 91.0713 79.5437 91.3219C79.4016 91.5725 79.197 91.7821 78.9498 91.93L49.7165 109.47C49.1981 109.782 48.6047 109.946 47.9998 109.946C47.395 109.946 46.8016 109.782 46.2832 109.47L17.0498 91.93C16.8027 91.7821 16.5981 91.5725 16.456 91.3219C16.3139 91.0713 16.2393 90.7881 16.2393 90.5C16.2393 90.2119 16.3139 89.9288 16.456 89.6781C16.5981 89.4275 16.8027 89.218 17.0498 89.07L21.0565 86.6667L47.9998 102.833L74.9432 86.6667V86.6667ZM74.9432 71L78.9498 73.4034C79.197 73.5513 79.4016 73.7609 79.5437 74.0115C79.6857 74.2621 79.7604 74.5453 79.7604 74.8334C79.7604 75.1214 79.6857 75.4046 79.5437 75.6552C79.4016 75.9059 79.197 76.1154 78.9498 76.2634L47.9998 94.8334L17.0498 76.2634C16.8027 76.1154 16.5981 75.9059 16.456 75.6552C16.3139 75.4046 16.2393 75.1214 16.2393 74.8334C16.2393 74.5453 16.3139 74.2621 16.456 74.0115C16.5981 73.7609 16.8027 73.5513 17.0498 73.4034L21.0565 71L47.9998 87.1667L74.9432 71ZM49.7132 40.3634L78.9498 57.9034C79.197 58.0513 79.4016 58.2609 79.5437 58.5115C79.6857 58.7621 79.7604 59.0453 79.7604 59.3334C79.7604 59.6215 79.6857 59.9046 79.5437 60.1552C79.4016 60.4059 79.197 60.6154 78.9498 60.7634L47.9998 79.3334L17.0498 60.7634C16.8027 60.6154 16.5981 60.4059 16.456 60.1552C16.3139 59.9046 16.2393 59.6215 16.2393 59.3334C16.2393 59.0453 16.3139 58.7621 16.456 58.5115C16.5981 58.2609 16.8027 58.0513 17.0498 57.9034L46.2832 40.3634C46.8016 40.0519 47.395 39.8873 47.9998 39.8873C48.6047 39.8873 49.1981 40.0519 49.7165 40.3634H49.7132ZM47.9998 47.1067L27.6232 59.3334L47.9998 71.56L68.3765 59.3334L47.9998 47.1067Z" fill="black"/>
</g>
<defs>
<clipPath id="clip0_395_8865">
<rect width="80" height="80" fill="white" transform="translate(8 36)"/>
</clipPath>
</defs>
</svg>
